<svg width="197" height="33" viewBox="0 0 197 33" fill="none" xmlns="http://www.w3.org/2000/svg">
<path d="M12.342 17.532L7.062 0.734999H0.132L8.184 24H16.467L24.486 0.734999H17.589L12.342 17.532ZM24.9503 14.727C24.9503 20.634 28.4483 24.231 32.8373 24.231C35.4443 24.231 37.3253 23.076 38.2823 21.426V24H44.7503V5.487H38.2823V8.061C37.3253 6.411 35.4773 5.256 32.8373 5.256C28.4483 5.256 24.9503 8.82 24.9503 14.727ZM38.2823 14.727C38.2823 17.235 36.7313 18.588 34.9163 18.588C33.0683 18.588 31.5503 17.202 31.5503 14.727C31.5503 12.219 33.0683 10.899 34.9163 10.899C36.7313 10.899 38.2823 12.252 38.2823 14.727ZM54.409 15.915C54.409 13.077 55.894 12.219 58.567 12.219H60.382V5.322C57.907 5.322 55.795 6.741 54.409 8.754V5.487H47.941V24H54.409V15.915ZM61.1498 14.727C61.1498 20.634 64.6478 24.231 69.0368 24.231C71.6438 24.231 73.5248 23.076 74.4818 21.426V24H80.9498V5.487H74.4818V8.061C73.5248 6.411 71.6768 5.256 69.0368 5.256C64.6478 5.256 61.1498 8.82 61.1498 14.727ZM74.4818 14.727C74.4818 17.235 72.9308 18.588 71.1158 18.588C69.2678 18.588 67.7498 17.202 67.7498 14.727C67.7498 12.219 69.2678 10.899 71.1158 10.899C72.9308 10.899 74.4818 12.252 74.4818 14.727ZM103.082 5.487H96.5815V15.42C96.5815 17.565 95.3935 18.819 93.5125 18.819C91.6645 18.819 90.4435 17.565 90.4435 15.42V5.487H84.0085V16.245C84.0085 21.129 86.6815 24.165 90.9715 24.165C93.5785 24.165 95.5255 22.944 96.5815 21.36V24H103.082V5.487ZM121.845 18.555C121.812 11.526 111.945 13.638 111.945 10.998C111.945 10.305 112.506 9.876 113.562 9.876C114.948 9.876 115.773 10.569 115.971 11.724H121.812C121.383 8.061 118.743 5.256 113.694 5.256C108.678 5.256 106.005 7.929 106.005 11.163C106.005 17.961 115.839 15.75 115.839 18.456C115.839 19.116 115.212 19.644 114.123 19.644C112.77 19.644 111.747 18.984 111.582 17.763H105.312C105.576 21.459 109.008 24.231 114.156 24.231C118.941 24.231 121.845 21.789 121.845 18.555ZM146.323 24H153.154L144.706 0.734999H137.248L128.767 24H135.565L136.819 20.205H145.069L146.323 24ZM143.452 15.255H138.469L140.944 7.731L143.452 15.255ZM161.235 8.061V5.487H154.767V32.844H161.235V21.426C162.225 23.043 164.04 24.231 166.647 24.231C171.069 24.231 174.534 20.634 174.534 14.727C174.534 8.82 171.069 5.256 166.647 5.256C164.073 5.256 162.192 6.411 161.235 8.061ZM167.967 14.727C167.967 17.202 166.416 18.588 164.601 18.588C162.786 18.588 161.235 17.235 161.235 14.727C161.235 12.252 162.786 10.899 164.601 10.899C166.416 10.899 167.967 12.219 167.967 14.727ZM183.17 8.061V5.487H176.702V32.844H183.17V21.426C184.16 23.043 185.975 24.231 188.582 24.231C193.004 24.231 196.469 20.634 196.469 14.727C196.469 8.82 193.004 5.256 188.582 5.256C186.008 5.256 184.127 6.411 183.17 8.061ZM189.902 14.727C189.902 17.202 188.351 18.588 186.536 18.588C184.721 18.588 183.17 17.235 183.17 14.727C183.17 12.252 184.721 10.899 186.536 10.899C188.351 10.899 189.902 12.219 189.902 14.727Z" fill="#6473FF"/>
</svg>
